<svg xmlns="http://www.w3.org/2000/svg" viewBox="0 0 1100 720" font-family="Inter, system-ui, sans-serif">
  <title>RACI canônico de IA corporativa</title>
  <desc>Matriz 8 papéis × 12 decisões críticas. R = Responsible, A = Accountable, C = Consulted, I = Informed. Cada linha tem único A.</desc>

  <rect width="1100" height="720" fill="#fefce8"/>

  <text x="550" y="38" text-anchor="middle" font-size="22" font-weight="700" fill="#0d1b2a">RACI CANÔNICO DE IA CORPORATIVA</text>
  <text x="550" y="60" text-anchor="middle" font-size="12" fill="#6b7280" font-style="italic">8 papéis × 12 decisões críticas · cada linha tem único A · sustenta o Invariante 8</text>

  <!-- Cabeçalho de colunas (papéis) - 8 colunas
       Largura total da matriz: 760. Coluna decisão: 240 (x=40 a 280). 8 papéis de 95 cada (x=280 a 1040) -->
  <g>
    <rect x="40" y="90" width="240" height="44" fill="#0d1b2a" stroke="#374151" stroke-width="0.5"/>
    <text x="160" y="118" text-anchor="middle" font-size="11" font-weight="700" fill="#fef3c7">DECISÃO ↓ / PAPEL →</text>

    <g font-size="10" font-weight="700" fill="#fef3c7">
      <rect x="280" y="90" width="95" height="44" fill="#1b263b" stroke="#374151" stroke-width="0.5"/>
      <text x="327" y="108" text-anchor="middle">CEO</text>
      <text x="327" y="124" text-anchor="middle">/ Diretoria</text>

      <rect x="375" y="90" width="95" height="44" fill="#1b263b" stroke="#374151" stroke-width="0.5"/>
      <text x="422" y="108" text-anchor="middle">CTO</text>
      <text x="422" y="124" text-anchor="middle">/ Tech Lead</text>

      <rect x="470" y="90" width="95" height="44" fill="#1b263b" stroke="#374151" stroke-width="0.5"/>
      <text x="517" y="108" text-anchor="middle">CDO</text>
      <text x="517" y="124" text-anchor="middle">/ Head Dados</text>

      <rect x="565" y="90" width="95" height="44" fill="#1b263b" stroke="#374151" stroke-width="0.5"/>
      <text x="612" y="108" text-anchor="middle">DPO</text>
      <text x="612" y="124" text-anchor="middle">/ Privacidade</text>

      <rect x="660" y="90" width="95" height="44" fill="#1b263b" stroke="#374151" stroke-width="0.5"/>
      <text x="707" y="108" text-anchor="middle">Compliance</text>
      <text x="707" y="124" text-anchor="middle">/ Jurídico</text>

      <rect x="755" y="90" width="95" height="44" fill="#1b263b" stroke="#374151" stroke-width="0.5"/>
      <text x="802" y="108" text-anchor="middle">Head</text>
      <text x="802" y="124" text-anchor="middle">de Produto</text>

      <rect x="850" y="90" width="95" height="44" fill="#1b263b" stroke="#374151" stroke-width="0.5"/>
      <text x="897" y="108" text-anchor="middle">Head</text>
      <text x="897" y="124" text-anchor="middle">de Operações</text>

      <rect x="945" y="90" width="95" height="44" fill="#1b263b" stroke="#374151" stroke-width="0.5"/>
      <text x="992" y="108" text-anchor="middle">Dev Lead /</text>
      <text x="992" y="124" text-anchor="middle">Arquiteto</text>
    </g>
  </g>

  <!-- 12 linhas de decisões. Altura de cada linha: 42. y inicial: 134.
       Sistema de cores: A=laranja sólido, R=navy, C=cinza claro, I=creme -->
  <g font-size="11" font-weight="700">
    <!-- Linha 1: Política de IA / AUP -->
    <rect x="40" y="134" width="240" height="42" fill="#fefce8" stroke="#9ca3af" stroke-width="0.5"/>
    <text x="50" y="160" font-size="11" fill="#0d1b2a">1. Política de IA / AUP</text>
    <rect x="280" y="134" width="95" height="42" fill="#E97451"/><text x="327" y="161" text-anchor="middle" fill="#fef3c7">A</text>
    <rect x="375" y="134" width="95" height="42" fill="#1b263b"/><text x="422" y="161" text-anchor="middle" fill="#fef3c7">R</text>
    <rect x="470" y="134" width="95" height="42" fill="#9ca3af"/><text x="517" y="161" text-anchor="middle" fill="#0d1b2a">C</text>
    <rect x="565" y="134" width="95" height="42" fill="#9ca3af"/><text x="612" y="161" text-anchor="middle" fill="#0d1b2a">C</text>
    <rect x="660" y="134" width="95" height="42" fill="#9ca3af"/><text x="707" y="161" text-anchor="middle" fill="#0d1b2a">C</text>
    <rect x="755" y="134" width="95" height="42" fill="#fefce8"/><text x="802" y="161" text-anchor="middle" fill="#9ca3af">I</text>
    <rect x="850" y="134" width="95" height="42" fill="#fefce8"/><text x="897" y="161" text-anchor="middle" fill="#9ca3af">I</text>
    <rect x="945" y="134" width="95" height="42" fill="#fefce8"/><text x="992" y="161" text-anchor="middle" fill="#9ca3af">I</text>

    <!-- Linha 2: Escolha de modelo em produção -->
    <rect x="40" y="176" width="240" height="42" fill="#fefce8" stroke="#9ca3af" stroke-width="0.5"/>
    <text x="50" y="202" font-size="11" fill="#0d1b2a">2. Escolha de modelo (prod.)</text>
    <rect x="280" y="176" width="95" height="42" fill="#fefce8"/><text x="327" y="203" text-anchor="middle" fill="#9ca3af">I</text>
    <rect x="375" y="176" width="95" height="42" fill="#E97451"/><text x="422" y="203" text-anchor="middle" fill="#fef3c7">A</text>
    <rect x="470" y="176" width="95" height="42" fill="#1b263b"/><text x="517" y="203" text-anchor="middle" fill="#fef3c7">R</text>
    <rect x="565" y="176" width="95" height="42" fill="#9ca3af"/><text x="612" y="203" text-anchor="middle" fill="#0d1b2a">C</text>
    <rect x="660" y="176" width="95" height="42" fill="#fefce8"/><text x="707" y="203" text-anchor="middle" fill="#9ca3af">I</text>
    <rect x="755" y="176" width="95" height="42" fill="#9ca3af"/><text x="802" y="203" text-anchor="middle" fill="#0d1b2a">C</text>
    <rect x="850" y="176" width="95" height="42" fill="#fefce8"/><text x="897" y="203" text-anchor="middle" fill="#9ca3af">I</text>
    <rect x="945" y="176" width="95" height="42" fill="#1b263b"/><text x="992" y="203" text-anchor="middle" fill="#fef3c7">R</text>

    <!-- Linha 3: Alteração de prompt em produção -->
    <rect x="40" y="218" width="240" height="42" fill="#fefce8" stroke="#9ca3af" stroke-width="0.5"/>
    <text x="50" y="244" font-size="11" fill="#0d1b2a">3. Alteração de prompt (prod.)</text>
    <rect x="280" y="218" width="95" height="42" fill="#fefce8"/><text x="327" y="245" text-anchor="middle" fill="#9ca3af">—</text>
    <rect x="375" y="218" width="95" height="42" fill="#E97451"/><text x="422" y="245" text-anchor="middle" fill="#fef3c7">A</text>
    <rect x="470" y="218" width="95" height="42" fill="#1b263b"/><text x="517" y="245" text-anchor="middle" fill="#fef3c7">R</text>
    <rect x="565" y="218" width="95" height="42" fill="#fefce8"/><text x="612" y="245" text-anchor="middle" fill="#9ca3af">I</text>
    <rect x="660" y="218" width="95" height="42" fill="#fefce8"/><text x="707" y="245" text-anchor="middle" fill="#9ca3af">I</text>
    <rect x="755" y="218" width="95" height="42" fill="#9ca3af"/><text x="802" y="245" text-anchor="middle" fill="#0d1b2a">C</text>
    <rect x="850" y="218" width="95" height="42" fill="#fefce8"/><text x="897" y="245" text-anchor="middle" fill="#9ca3af">I</text>
    <rect x="945" y="218" width="95" height="42" fill="#1b263b"/><text x="992" y="245" text-anchor="middle" fill="#fef3c7">R</text>

    <!-- Linha 4: Decisão automatizada (LGPD art. 20) -->
    <rect x="40" y="260" width="240" height="42" fill="#fefce8" stroke="#9ca3af" stroke-width="0.5"/>
    <text x="50" y="286" font-size="11" fill="#0d1b2a">4. Decisão automatizada (LGPD 20)</text>
    <rect x="280" y="260" width="95" height="42" fill="#9ca3af"/><text x="327" y="287" text-anchor="middle" fill="#0d1b2a">C</text>
    <rect x="375" y="260" width="95" height="42" fill="#9ca3af"/><text x="422" y="287" text-anchor="middle" fill="#0d1b2a">C</text>
    <rect x="470" y="260" width="95" height="42" fill="#fefce8"/><text x="517" y="287" text-anchor="middle" fill="#9ca3af">I</text>
    <rect x="565" y="260" width="95" height="42" fill="#E97451"/><text x="612" y="287" text-anchor="middle" fill="#fef3c7">A</text>
    <rect x="660" y="260" width="95" height="42" fill="#1b263b"/><text x="707" y="287" text-anchor="middle" fill="#fef3c7">R</text>
    <rect x="755" y="260" width="95" height="42" fill="#9ca3af"/><text x="802" y="287" text-anchor="middle" fill="#0d1b2a">C</text>
    <rect x="850" y="260" width="95" height="42" fill="#fefce8"/><text x="897" y="287" text-anchor="middle" fill="#9ca3af">I</text>
    <rect x="945" y="260" width="95" height="42" fill="#fefce8"/><text x="992" y="287" text-anchor="middle" fill="#9ca3af">I</text>

    <!-- Linha 5: Adoção de novo MCP -->
    <rect x="40" y="302" width="240" height="42" fill="#fefce8" stroke="#9ca3af" stroke-width="0.5"/>
    <text x="50" y="328" font-size="11" fill="#0d1b2a">5. Adoção de novo MCP</text>
    <rect x="280" y="302" width="95" height="42" fill="#fefce8"/><text x="327" y="329" text-anchor="middle" fill="#9ca3af">—</text>
    <rect x="375" y="302" width="95" height="42" fill="#E97451"/><text x="422" y="329" text-anchor="middle" fill="#fef3c7">A</text>
    <rect x="470" y="302" width="95" height="42" fill="#1b263b"/><text x="517" y="329" text-anchor="middle" fill="#fef3c7">R</text>
    <rect x="565" y="302" width="95" height="42" fill="#9ca3af"/><text x="612" y="329" text-anchor="middle" fill="#0d1b2a">C</text>
    <rect x="660" y="302" width="95" height="42" fill="#9ca3af"/><text x="707" y="329" text-anchor="middle" fill="#0d1b2a">C</text>
    <rect x="755" y="302" width="95" height="42" fill="#fefce8"/><text x="802" y="329" text-anchor="middle" fill="#9ca3af">I</text>
    <rect x="850" y="302" width="95" height="42" fill="#fefce8"/><text x="897" y="329" text-anchor="middle" fill="#9ca3af">I</text>
    <rect x="945" y="302" width="95" height="42" fill="#1b263b"/><text x="992" y="329" text-anchor="middle" fill="#fef3c7">R</text>

    <!-- Linha 6: Aprovação de agente autônomo -->
    <rect x="40" y="344" width="240" height="42" fill="#fefce8" stroke="#9ca3af" stroke-width="0.5"/>
    <text x="50" y="370" font-size="11" fill="#0d1b2a">6. Promover agente autônomo</text>
    <rect x="280" y="344" width="95" height="42" fill="#fefce8"/><text x="327" y="371" text-anchor="middle" fill="#9ca3af">I</text>
    <rect x="375" y="344" width="95" height="42" fill="#E97451"/><text x="422" y="371" text-anchor="middle" fill="#fef3c7">A</text>
    <rect x="470" y="344" width="95" height="42" fill="#9ca3af"/><text x="517" y="371" text-anchor="middle" fill="#0d1b2a">C</text>
    <rect x="565" y="344" width="95" height="42" fill="#9ca3af"/><text x="612" y="371" text-anchor="middle" fill="#0d1b2a">C</text>
    <rect x="660" y="344" width="95" height="42" fill="#9ca3af"/><text x="707" y="371" text-anchor="middle" fill="#0d1b2a">C</text>
    <rect x="755" y="344" width="95" height="42" fill="#9ca3af"/><text x="802" y="371" text-anchor="middle" fill="#0d1b2a">C</text>
    <rect x="850" y="344" width="95" height="42" fill="#fefce8"/><text x="897" y="371" text-anchor="middle" fill="#9ca3af">I</text>
    <rect x="945" y="344" width="95" height="42" fill="#1b263b"/><text x="992" y="371" text-anchor="middle" fill="#fef3c7">R</text>

    <!-- Linha 7: Incidente SEV-1 -->
    <rect x="40" y="386" width="240" height="42" fill="#fefce8" stroke="#9ca3af" stroke-width="0.5"/>
    <text x="50" y="412" font-size="11" fill="#0d1b2a">7. Incidente SEV-1 (resposta)</text>
    <rect x="280" y="386" width="95" height="42" fill="#fefce8"/><text x="327" y="413" text-anchor="middle" fill="#9ca3af">I</text>
    <rect x="375" y="386" width="95" height="42" fill="#E97451"/><text x="422" y="413" text-anchor="middle" fill="#fef3c7">A</text>
    <rect x="470" y="386" width="95" height="42" fill="#1b263b"/><text x="517" y="413" text-anchor="middle" fill="#fef3c7">R</text>
    <rect x="565" y="386" width="95" height="42" fill="#9ca3af"/><text x="612" y="413" text-anchor="middle" fill="#0d1b2a">C</text>
    <rect x="660" y="386" width="95" height="42" fill="#9ca3af"/><text x="707" y="413" text-anchor="middle" fill="#0d1b2a">C</text>
    <rect x="755" y="386" width="95" height="42" fill="#9ca3af"/><text x="802" y="413" text-anchor="middle" fill="#0d1b2a">C</text>
    <rect x="850" y="386" width="95" height="42" fill="#1b263b"/><text x="897" y="413" text-anchor="middle" fill="#fef3c7">R</text>
    <rect x="945" y="386" width="95" height="42" fill="#1b263b"/><text x="992" y="413" text-anchor="middle" fill="#fef3c7">R</text>

    <!-- Linha 8: Fine-tuning -->
    <rect x="40" y="428" width="240" height="42" fill="#fefce8" stroke="#9ca3af" stroke-width="0.5"/>
    <text x="50" y="454" font-size="11" fill="#0d1b2a">8. Decidir fine-tuning</text>
    <rect x="280" y="428" width="95" height="42" fill="#fefce8"/><text x="327" y="455" text-anchor="middle" fill="#9ca3af">I</text>
    <rect x="375" y="428" width="95" height="42" fill="#9ca3af"/><text x="422" y="455" text-anchor="middle" fill="#0d1b2a">C</text>
    <rect x="470" y="428" width="95" height="42" fill="#E97451"/><text x="517" y="455" text-anchor="middle" fill="#fef3c7">A</text>
    <rect x="565" y="428" width="95" height="42" fill="#9ca3af"/><text x="612" y="455" text-anchor="middle" fill="#0d1b2a">C</text>
    <rect x="660" y="428" width="95" height="42" fill="#fefce8"/><text x="707" y="455" text-anchor="middle" fill="#9ca3af">I</text>
    <rect x="755" y="428" width="95" height="42" fill="#9ca3af"/><text x="802" y="455" text-anchor="middle" fill="#0d1b2a">C</text>
    <rect x="850" y="428" width="95" height="42" fill="#fefce8"/><text x="897" y="455" text-anchor="middle" fill="#9ca3af">I</text>
    <rect x="945" y="428" width="95" height="42" fill="#1b263b"/><text x="992" y="455" text-anchor="middle" fill="#fef3c7">R</text>

    <!-- Linha 9: Aprovação de dataset -->
    <rect x="40" y="470" width="240" height="42" fill="#fefce8" stroke="#9ca3af" stroke-width="0.5"/>
    <text x="50" y="496" font-size="11" fill="#0d1b2a">9. Aprovação de dataset</text>
    <rect x="280" y="470" width="95" height="42" fill="#fefce8"/><text x="327" y="497" text-anchor="middle" fill="#9ca3af">—</text>
    <rect x="375" y="470" width="95" height="42" fill="#fefce8"/><text x="422" y="497" text-anchor="middle" fill="#9ca3af">I</text>
    <rect x="470" y="470" width="95" height="42" fill="#E97451"/><text x="517" y="497" text-anchor="middle" fill="#fef3c7">A</text>
    <rect x="565" y="470" width="95" height="42" fill="#9ca3af"/><text x="612" y="497" text-anchor="middle" fill="#0d1b2a">C</text>
    <rect x="660" y="470" width="95" height="42" fill="#9ca3af"/><text x="707" y="497" text-anchor="middle" fill="#0d1b2a">C</text>
    <rect x="755" y="470" width="95" height="42" fill="#fefce8"/><text x="802" y="497" text-anchor="middle" fill="#9ca3af">I</text>
    <rect x="850" y="470" width="95" height="42" fill="#fefce8"/><text x="897" y="497" text-anchor="middle" fill="#9ca3af">I</text>
    <rect x="945" y="470" width="95" height="42" fill="#1b263b"/><text x="992" y="497" text-anchor="middle" fill="#fef3c7">R</text>

    <!-- Linha 10: Retenção e privacidade de logs -->
    <rect x="40" y="512" width="240" height="42" fill="#fefce8" stroke="#9ca3af" stroke-width="0.5"/>
    <text x="50" y="538" font-size="11" fill="#0d1b2a">10. Retenção / privacidade de logs</text>
    <rect x="280" y="512" width="95" height="42" fill="#fefce8"/><text x="327" y="539" text-anchor="middle" fill="#9ca3af">I</text>
    <rect x="375" y="512" width="95" height="42" fill="#9ca3af"/><text x="422" y="539" text-anchor="middle" fill="#0d1b2a">C</text>
    <rect x="470" y="512" width="95" height="42" fill="#9ca3af"/><text x="517" y="539" text-anchor="middle" fill="#0d1b2a">C</text>
    <rect x="565" y="512" width="95" height="42" fill="#E97451"/><text x="612" y="539" text-anchor="middle" fill="#fef3c7">A</text>
    <rect x="660" y="512" width="95" height="42" fill="#1b263b"/><text x="707" y="539" text-anchor="middle" fill="#fef3c7">R</text>
    <rect x="755" y="512" width="95" height="42" fill="#fefce8"/><text x="802" y="539" text-anchor="middle" fill="#9ca3af">I</text>
    <rect x="850" y="512" width="95" height="42" fill="#fefce8"/><text x="897" y="539" text-anchor="middle" fill="#9ca3af">I</text>
    <rect x="945" y="512" width="95" height="42" fill="#fefce8"/><text x="992" y="539" text-anchor="middle" fill="#9ca3af">I</text>

    <!-- Linha 11: Orçamento anual de IA -->
    <rect x="40" y="554" width="240" height="42" fill="#fefce8" stroke="#9ca3af" stroke-width="0.5"/>
    <text x="50" y="580" font-size="11" fill="#0d1b2a">11. Orçamento anual de IA</text>
    <rect x="280" y="554" width="95" height="42" fill="#E97451"/><text x="327" y="581" text-anchor="middle" fill="#fef3c7">A</text>
    <rect x="375" y="554" width="95" height="42" fill="#1b263b"/><text x="422" y="581" text-anchor="middle" fill="#fef3c7">R</text>
    <rect x="470" y="554" width="95" height="42" fill="#9ca3af"/><text x="517" y="581" text-anchor="middle" fill="#0d1b2a">C</text>
    <rect x="565" y="554" width="95" height="42" fill="#fefce8"/><text x="612" y="581" text-anchor="middle" fill="#9ca3af">I</text>
    <rect x="660" y="554" width="95" height="42" fill="#fefce8"/><text x="707" y="581" text-anchor="middle" fill="#9ca3af">I</text>
    <rect x="755" y="554" width="95" height="42" fill="#9ca3af"/><text x="802" y="581" text-anchor="middle" fill="#0d1b2a">C</text>
    <rect x="850" y="554" width="95" height="42" fill="#fefce8"/><text x="897" y="581" text-anchor="middle" fill="#9ca3af">I</text>
    <rect x="945" y="554" width="95" height="42" fill="#fefce8"/><text x="992" y="581" text-anchor="middle" fill="#9ca3af">I</text>

    <!-- Linha 12: Comunicação externa de incidente -->
    <rect x="40" y="596" width="240" height="42" fill="#fefce8" stroke="#9ca3af" stroke-width="0.5"/>
    <text x="50" y="622" font-size="11" fill="#0d1b2a">12. Comunicação externa (SEV-1)</text>
    <rect x="280" y="596" width="95" height="42" fill="#E97451"/><text x="327" y="623" text-anchor="middle" fill="#fef3c7">A</text>
    <rect x="375" y="596" width="95" height="42" fill="#9ca3af"/><text x="422" y="623" text-anchor="middle" fill="#0d1b2a">C</text>
    <rect x="470" y="596" width="95" height="42" fill="#fefce8"/><text x="517" y="623" text-anchor="middle" fill="#9ca3af">I</text>
    <rect x="565" y="596" width="95" height="42" fill="#9ca3af"/><text x="612" y="623" text-anchor="middle" fill="#0d1b2a">C</text>
    <rect x="660" y="596" width="95" height="42" fill="#1b263b"/><text x="707" y="623" text-anchor="middle" fill="#fef3c7">R</text>
    <rect x="755" y="596" width="95" height="42" fill="#9ca3af"/><text x="802" y="623" text-anchor="middle" fill="#0d1b2a">C</text>
    <rect x="850" y="596" width="95" height="42" fill="#fefce8"/><text x="897" y="623" text-anchor="middle" fill="#9ca3af">I</text>
    <rect x="945" y="596" width="95" height="42" fill="#fefce8"/><text x="992" y="623" text-anchor="middle" fill="#9ca3af">I</text>
  </g>

  <!-- Legenda -->
  <g transform="translate(40,660)" font-size="11">
    <rect x="0" y="0" width="20" height="20" fill="#E97451"/>
    <text x="28" y="14" fill="#0d1b2a"><tspan font-weight="700">A</tspan> Accountable (único nominal)</text>

    <rect x="270" y="0" width="20" height="20" fill="#1b263b"/>
    <text x="298" y="14" fill="#0d1b2a"><tspan font-weight="700">R</tspan> Responsible (executa)</text>

    <rect x="500" y="0" width="20" height="20" fill="#9ca3af"/>
    <text x="528" y="14" fill="#0d1b2a"><tspan font-weight="700">C</tspan> Consulted (é ouvido)</text>

    <rect x="730" y="0" width="20" height="20" fill="#fefce8" stroke="#9ca3af"/>
    <text x="758" y="14" fill="#0d1b2a"><tspan font-weight="700">I</tspan> Informed (é avisado)</text>
  </g>

  <text x="550" y="700" text-anchor="middle" font-size="11" fill="#0d1b2a" font-style="italic">★ "A IA executa. A responsabilidade tem sempre um nome humano." — Invariante 8</text>
</svg>
